<svg height="476pt" viewBox="0 -11 476.424 476" width="476pt" xmlns="http://www.w3.org/2000/svg"><path d="m12.425781 214.667969h464v240h-464zm0 0" fill="#787680"/><path d="m100.425781 166.667969h-88v48h56zm0 0" fill="#acabb1"/><path d="m388.425781 214.667969h88v-48h-56zm0 0" fill="#acabb1"/><path d="m132.425781 214.667969 32-48h-64l-32 48zm0 0" fill="#787680"/><path d="m196.425781 214.667969 32-48h-64l-32 48zm0 0" fill="#acabb1"/><path d="m260.425781 214.667969 32-48h-64l-32 48zm0 0" fill="#787680"/><path d="m324.425781 214.667969 32-48h-64l-32 48zm0 0" fill="#acabb1"/><path d="m388.425781 214.667969 32-48h-64l-32 48zm0 0" fill="#787680"/><path d="m221.0625 110.765625-61.816406 16.558594-61.820313 16.566406-43.328125-38.078125 61.8125-16.570312 61.816406-16.558594 61.824219-16.566406 19.992188-5.359376-259.542969 69.542969 12.425781 46.367188 230.886719-61.863281zm0 0" fill="#acabb1"/><path d="m460.617188 46.570312-12.425782-46.359374-85 22.777343 43.328125 38.078125zm0 0" fill="#acabb1"/><path d="m54.097656 105.8125 43.328125 38.078125 61.820313-16.566406-43.335938-38.082031zm0 0" fill="#787680"/><path d="m115.910156 89.242188 43.335938 38.082031 61.816406-16.558594-43.335938-38.082031zm0 0" fill="#acabb1"/><path d="m243.3125 104.804688 39.566406-10.609376zm0 0" fill="#78b9eb"/><path d="m239.550781 56.117188-61.824219 16.566406 43.335938 38.082031 22.25-5.960937 39.566406-10.609376zm0 0" fill="#787680"/><path d="m282.878906 94.195312 61.824219-16.558593zm0 0" fill="#78b9eb"/><path d="m301.367188 39.546875-41.824219 11.210937zm0 0" fill="#78b9eb"/><path d="m282.878906 94.195312 61.824219-16.558593-43.335937-38.089844-41.824219 11.210937-19.992188 5.359376zm0 0" fill="#acabb1"/><path d="m344.703125 77.636719 61.816406-16.570313zm0 0" fill="#78b9eb"/><path d="m363.191406 22.988281-61.824218 16.558594zm0 0" fill="#78b9eb"/><path d="m344.703125 77.636719 61.816406-16.570313-43.328125-38.078125-61.824218 16.558594zm0 0" fill="#787680"/><path d="m68.425781 262.667969h352v80h-352zm0 0" fill="#ff7956"/><path d="m68.425781 374.667969h352v32h-352zm0 0" fill="#ffde55"/><path d="m12.425781 214.667969h464v8h-464zm0 0" fill="#57565c"/></svg>