<svg viewBox="0 0 512 512" xmlns="http://www.w3.org/2000/svg"><path d="m512 256c0 141.386719-114.613281 256-256 256s-256-114.613281-256-256 114.613281-256 256-256 256 114.613281 256 256zm0 0" fill="#414952"/><path d="m64 316.5 195.457031 195.457031c139.789063-1.851562 252.542969-115.726562 252.542969-255.957031 0-6.464844-.246094-12.871094-.714844-19.214844l-53.285156-53.285156-185.425781 12.316406zm0 0" fill="#23272b"/><path d="m215.613281 301.5h-136.613281v-103h164.800781zm0 0" fill="#00edff"/><path d="m296.386719 301.5h136.613281v-103h-164.800781zm0 0" fill="#ff4545"/><path d="m54 183.5v71.167969l10 10v51.832031h163.058594l28.941406-105.742188 28.941406 105.742188h163.058594v-51.832031l10-10v-71.167969zm150.164062 103h-110.164062v-73h130.144531zm213.835938 0h-110.164062l-19.980469-73h130.144531zm0 0" fill="#fff"/><path d="m256 210.757812 28.941406 105.742188h163.058594v-51.832031l10-10v-71.167969h-202zm162 75.742188h-110.164062l-19.980469-73h130.144531zm0 0" fill="#dce1eb"/><path d="m54 183.5v71.167969l10 10v51.832031h163.058594l25.941406-94.78125v-38.21875zm150.164062 103h-110.164062v-73h130.144531zm0 0" fill="#fff"/></svg>